HIERARCHY
ROOT Hips
{
    OFFSET   0.000000   0.000000   0.000000
    CHANNELS 6 Xposition Yposition Zposition Zrotation Xrotation Yrotation
    JOINT Chest
    {
        OFFSET   0.000000   8.007230   0.000000
        CHANNELS 3 Zrotation Xrotation Yrotation
        JOINT Chest2
        {
            OFFSET   0.000000  22.077100   0.000000
            CHANNELS 3 Zrotation Xrotation Yrotation
            JOINT Neck
            {
                OFFSET   0.000000  23.255100   0.000000
                CHANNELS 3 Zrotation Xrotation Yrotation
                JOINT Head
                {
                    OFFSET   0.000000  14.370100   1.956600
                    CHANNELS 3 Zrotation Xrotation Yrotation
                    End Site
                    {
                        OFFSET   0.000000  19.566000   0.000000
                    }
                }
            }
            JOINT LeftCollar
            {
                OFFSET   3.911900  19.017000  -0.467063
                CHANNELS 3 Zrotation Xrotation Yrotation
                JOINT LeftShoulder
                {
                    OFFSET  10.383700   0.000000   0.000000
                    CHANNELS 3 Zrotation Xrotation Yrotation
                    JOINT LeftElbow
                    {
                        OFFSET  26.662100   0.001193   0.000980
                        CHANNELS 3 Zrotation Xrotation Yrotation
                        JOINT LeftWrist
                        {
                            OFFSET  28.869000  -0.000059  -0.000082
                            CHANNELS 3 Zrotation Xrotation Yrotation
                            JOINT LeftFinger0
                            {
                                OFFSET   2.044650  -2.323450   3.252850
                                CHANNELS 3 Zrotation Xrotation Yrotation
                                JOINT LeftFinger01
                                {
                                    OFFSET   3.088130   0.000000   0.000000
                                    CHANNELS 3 Zrotation Xrotation Yrotation
                                    JOINT LeftFinger02
                                    {
                                        OFFSET   2.639460   0.000000   0.000000
                                        CHANNELS 3 Zrotation Xrotation Yrotation
                                        End Site
                                        {
                                            OFFSET   2.582190   0.000000   0.000000
                                        }
                                    }
                                }
                            }
                            JOINT LeftFinger1
                            {
                                OFFSET   8.364480   0.000000   3.252850
                                CHANNELS 3 Zrotation Xrotation Yrotation
                                JOINT LeftFinger11
                                {
                                    OFFSET   4.646930   0.000000   0.000000
                                    CHANNELS 3 Zrotation Xrotation Yrotation
                                    JOINT LeftFinger12
                                    {
                                        OFFSET   2.323470   0.000000   0.000000
                                        CHANNELS 3 Zrotation Xrotation Yrotation
                                        End Site
                                        {
                                            OFFSET   2.273050   0.000000   0.000000
                                        }
                                    }
                                }
                            }
                            JOINT LeftFinger2
                            {
                                OFFSET   8.364490   0.000016   1.078090
                                CHANNELS 3 Zrotation Xrotation Yrotation
                                JOINT LeftFinger21
                                {
                                    OFFSET   5.111610   0.000000   0.000000
                                    CHANNELS 3 Zrotation Xrotation Yrotation
                                    JOINT LeftFinger22
                                    {
                                        OFFSET   2.788150   0.000016   0.000000
                                        CHANNELS 3 Zrotation Xrotation Yrotation
                                        End Site
                                        {
                                            OFFSET   2.727660   0.000000   0.000000
                                        }
                                    }
                                }
                            }
                            JOINT LeftFinger3
                            {
                                OFFSET   7.899780   0.000015  -1.078090
                                CHANNELS 3 Zrotation Xrotation Yrotation
                                JOINT LeftFinger31
                                {
                                    OFFSET   4.646930   0.000000   0.000000
                                    CHANNELS 3 Zrotation Xrotation Yrotation
                                    JOINT LeftFinger32
                                    {
                                        OFFSET   2.323470   0.000000   0.000000
                                        CHANNELS 3 Zrotation Xrotation Yrotation
                                        End Site
                                        {
                                            OFFSET   2.273050   0.000000   0.000000
                                        }
                                    }
                                }
                            }
                            JOINT LeftFinger4
                            {
                                OFFSET   7.435090   0.000000  -3.252850
                                CHANNELS 3 Zrotation Xrotation Yrotation
                                JOINT LeftFinger41
                                {
                                    OFFSET   3.717550   0.000000   0.000000
                                    CHANNELS 3 Zrotation Xrotation Yrotation
                                    JOINT LeftFinger42
                                    {
                                        OFFSET   1.858770   0.000000   0.000000
                                        CHANNELS 3 Zrotation Xrotation Yrotation
                                        End Site
                                        {
                                            OFFSET   1.818440   0.000000   0.000000
                                        }
                                    }
                                }
                            }
                        }
                    }
                }
            }
            JOINT RightCollar
            {
                OFFSET  -3.911910  19.017000  -0.467062
                CHANNELS 3 Zrotation Xrotation Yrotation
                JOINT RightShoulder
                {
                    OFFSET -10.383700   0.000014   0.000000
                    CHANNELS 3 Zrotation Xrotation Yrotation
                    JOINT RightElbow
                    {
                        OFFSET -26.662100   0.001225   0.001091
                        CHANNELS 3 Zrotation Xrotation Yrotation
                        JOINT RightWrist
                        {
                            OFFSET -28.869000  -0.000020  -0.000085
                            CHANNELS 3 Zrotation Xrotation Yrotation
                            JOINT RightFinger0
                            {
                                OFFSET  -2.044650  -2.323490   3.252850
                                CHANNELS 3 Zrotation Xrotation Yrotation
                                JOINT RightFinger01
                                {
                                    OFFSET  -3.088130   0.000000   0.000000
                                    CHANNELS 3 Zrotation Xrotation Yrotation
                                    JOINT RightFinger02
                                    {
                                        OFFSET  -2.639460   0.000000   0.000000
                                        CHANNELS 3 Zrotation Xrotation Yrotation
                                        End Site
                                        {
                                            OFFSET  -2.582190   0.000000   0.000000
                                        }
                                    }
                                }
                            }
                            JOINT RightFinger1
                            {
                                OFFSET  -8.364480   0.000000   3.252850
                                CHANNELS 3 Zrotation Xrotation Yrotation
                                JOINT RightFinger11
                                {
                                    OFFSET  -4.646930   0.000000   0.000000
                                    CHANNELS 3 Zrotation Xrotation Yrotation
                                    JOINT RightFinger12
                                    {
                                        OFFSET  -2.323470   0.000000   0.000000
                                        CHANNELS 3 Zrotation Xrotation Yrotation
                                        End Site
                                        {
                                            OFFSET  -2.273050   0.000000   0.000000
                                        }
                                    }
                                }
                            }
                            JOINT RightFinger2
                            {
                                OFFSET  -8.364480   0.000000   1.078090
                                CHANNELS 3 Zrotation Xrotation Yrotation
                                JOINT RightFinger21
                                {
                                    OFFSET  -5.111620   0.000000   0.000000
                                    CHANNELS 3 Zrotation Xrotation Yrotation
                                    JOINT RightFinger22
                                    {
                                        OFFSET  -2.788160   0.000000   0.000000
                                        CHANNELS 3 Zrotation Xrotation Yrotation
                                        End Site
                                        {
                                            OFFSET  -2.727660   0.000000   0.000000
                                        }
                                    }
                                }
                            }
                            JOINT RightFinger3
                            {
                                OFFSET  -7.899780   0.000000  -1.078090
                                CHANNELS 3 Zrotation Xrotation Yrotation
                                JOINT RightFinger31
                                {
                                    OFFSET  -4.646930   0.000000   0.000000
                                    CHANNELS 3 Zrotation Xrotation Yrotation
                                    JOINT RightFinger32
                                    {
                                        OFFSET  -2.323470   0.000000   0.000000
                                        CHANNELS 3 Zrotation Xrotation Yrotation
                                        End Site
                                        {
                                            OFFSET  -2.273050   0.000000   0.000000
                                        }
                                    }
                                }
                            }
                            JOINT RightFinger4
                            {
                                OFFSET  -7.435090   0.000000  -3.252850
                                CHANNELS 3 Zrotation Xrotation Yrotation
                                JOINT RightFinger41
                                {
                                    OFFSET  -3.717550   0.000000   0.000000
                                    CHANNELS 3 Zrotation Xrotation Yrotation
                                    JOINT RightFinger42
                                    {
                                        OFFSET  -1.858760   0.000000   0.000000
                                        CHANNELS 3 Zrotation Xrotation Yrotation
                                        End Site
                                        {
                                            OFFSET  -1.818440   0.000000   0.000000
                                        }
                                    }
                                }
                            }
                        }
                    }
                }
            }
        }
    }
    JOINT LeftHip
    {
        OFFSET   9.783030   0.000000   0.000000
        CHANNELS 3 Zrotation Xrotation Yrotation
        JOINT LeftKnee
        {
            OFFSET   0.000063 -41.789100   0.000608
            CHANNELS 3 Zrotation Xrotation Yrotation
            JOINT LeftAnkle
            {
                OFFSET   0.000048 -41.133200  -0.000184
                CHANNELS 3 Zrotation Xrotation Yrotation
                JOINT LeftToe
                {
                    OFFSET   0.000000  -6.358960  14.674500
                    CHANNELS 3 Zrotation Xrotation Yrotation
                    End Site
                    {
                        OFFSET   0.000000   0.000000   3.913200
                    }
                }
            }
        }
    }
    JOINT RightHip
    {
        OFFSET  -9.783030   0.000000   0.000000
        CHANNELS 3 Zrotation Xrotation Yrotation
        JOINT RightKnee
        {
            OFFSET   0.000071 -41.789100   0.001239
            CHANNELS 3 Zrotation Xrotation Yrotation
            JOINT RightAnkle
            {
                OFFSET   0.000037 -41.133200  -0.000166
                CHANNELS 3 Zrotation Xrotation Yrotation
                JOINT RightToe
                {
                    OFFSET   0.000000  -6.358960  14.674500
                    CHANNELS 3 Zrotation Xrotation Yrotation
                    End Site
                    {
                        OFFSET   0.000000   0.000000   3.913200
                    }
                }
            }
        }
    }
}
MOTION
Frames: 4
Frame Time:   0.016667
  0.646392  89.504900   0.334400  -0.272823  -4.731190   3.233460   0.442763   3.781080  -1.303580   0.975023   7.550930  -2.645120  -0.437567   1.113360   0.003119  -0.719386   2.257060   4.353860  -4.350960   1.552050  10.848200 -79.511600   6.833560  -3.508630  -0.592559   7.535800 -14.014600  10.264200  -3.372010  -0.266218  42.587100  38.894800 -56.218200 -33.973100   0.001132   0.000811 -11.992100   0.004096  -0.002050 -32.873000  -1.674870   2.589210 -26.926700  -0.004801  -0.008438 -18.849000  -0.002540  -0.013221 -30.430600  -0.854522   6.397940 -45.474000   0.000215   0.005837 -30.285700  -0.005962  -0.004396 -27.859500  -3.913650   7.362780 -32.680500  -0.001355   0.001141 -21.765200  -0.003632  -0.003790 -31.924400  -4.429760   7.065200 -48.315900  -0.003023   0.001905 -32.178400  -0.003772  -0.005139   8.387690   4.544130   5.979510  72.256800  -0.397996   6.093080   2.593460  -1.246170  15.738700 -21.674900   1.110480   3.145100 -39.485900  36.860100  70.792400  32.977300  -0.001747  -0.000782  11.488700  -0.003697   0.002577  24.323200   0.423615   0.936803  19.903700   0.001002   0.000346  13.932600   0.011368   0.000239  24.183700  -1.204880  -2.680670  24.211600  -0.001353   0.011524  16.124900  -0.004188  -0.003584  24.305300  -2.563130  -5.655150  24.432000   0.008075   0.001263  16.271700  -0.002929  -0.002428  28.120300  -2.934450  -5.472110  42.391000   0.000096   0.000405  28.232400   0.010721  -0.000898   2.568350   5.733890   0.252536   0.386427   1.494830  11.144800  -2.700710  -2.896910  -0.721014   0.000000   0.000000   0.000000  -0.096382   4.952850  -2.187690  -0.481587   4.104680 -13.007100   1.062380  -4.028580  -2.391940   0.000000   0.000000   0.000000
  0.659557  89.505100   0.334188  -0.279537  -4.749660   3.179150   0.443780   3.790010  -1.300630   0.977048   7.568790  -2.639220  -0.413633   1.141850   0.003139  -0.679987   2.314960   4.282400  -4.354160   1.560230  10.844500 -79.516800   6.833030  -3.508130  -0.590066   7.543700 -14.039600  10.265500  -3.372500  -0.281227  42.595700  38.905900 -56.214200 -33.972800   0.001094   0.000804 -11.992100   0.004084  -0.002073 -32.872700  -1.677550   2.593590 -26.926700  -0.004772  -0.008452 -18.848600  -0.002521  -0.013242 -30.424300  -0.854522   6.397970 -45.464500   0.000215   0.005837 -30.279300  -0.005963  -0.004365 -27.858700  -3.916400   7.367310 -32.680500  -0.001355   0.001141 -21.765200  -0.003632  -0.003763 -31.923000  -4.432400   7.069870 -48.309000  -0.003024   0.001905 -32.173800  -0.003772  -0.005123   8.401130   4.535670   5.978690  72.247100  -0.404773   6.108820   2.594130  -1.399870  15.690700 -21.725100   1.037030   3.144720 -39.482700  36.855800  70.755100  32.995500  -0.001723  -0.000840  11.497800  -0.003699   0.002551  24.359600   0.405089   0.894859  19.933200   0.000962   0.000324  13.953300   0.011379   0.000224  24.215200  -1.225150  -2.720240  24.244000  -0.001340   0.011556  16.146400  -0.004190  -0.003584  24.340000  -2.578330  -5.679030  24.468000   0.008105   0.001250  16.295700  -0.002919  -0.002424  28.154200  -2.952130  -5.494940  42.444100   0.000059   0.000390  28.267800   0.010763  -0.000909   2.563480   5.763840   0.247836   0.379931   1.487410  11.178300  -2.686950  -2.896960  -0.694619   0.000000   0.000000   0.000000  -0.097075   4.959670  -2.171500  -0.484399   4.114720 -12.996200   1.072400  -4.022990  -2.364780   0.000000   0.000000   0.000000
  0.680820  89.505300   0.333975  -0.292350  -4.785370   3.093030   0.446231   3.803590  -1.297440   0.982128   7.595930  -2.633300  -0.372807   1.206390   0.003188  -0.612902   2.445950   4.153170  -4.360440   1.572770  10.840800 -79.526600   6.829320  -3.504610  -0.585116   7.570360 -14.075200  10.270500  -3.375940  -0.299645  42.607000  38.920500 -56.205500 -33.972500   0.001009   0.000766 -11.992000   0.004058  -0.002123 -32.872200  -1.683260   2.602520 -26.926700  -0.004702  -0.008486 -18.848200  -0.002477  -0.013293 -30.418000  -0.854522   6.398020 -45.455000   0.000216   0.005840 -30.273000  -0.005965  -0.004292 -27.857300  -3.921670   7.376240 -32.680500  -0.001357   0.001142 -21.765200  -0.003632  -0.003702 -31.920900  -4.437790   7.078830 -48.302100  -0.003026   0.001905 -32.169200  -0.003772  -0.005083   8.424030   4.520680   5.977820  72.229000  -0.416825   6.131710   2.595740  -1.635520  15.601600 -21.772800   0.920855   3.142460 -39.477700  36.855500  70.714800  33.021700  -0.001665  -0.000953  11.510900  -0.003705   0.002482  24.424500   0.380581   0.837737  19.986000   0.000871   0.000277  13.990200   0.011406   0.000194  24.271000  -1.245420  -2.759820  24.300600  -0.001306   0.011632  16.184200  -0.004194  -0.003587  24.399800  -2.596300  -5.702920  24.529100   0.008174   0.001218  16.336400  -0.002892  -0.002414  28.210900  -2.970370  -5.517780  42.531000   0.000000   0.000355  28.325600   0.010834  -0.000920   2.558500   5.819480   0.243147   0.368038   1.473310  11.226600  -2.665440  -2.897030  -0.653583   0.000000   0.000000  -0.000000  -0.097985   4.975610  -2.146450  -0.489533   4.132910 -12.985500   1.087630  -4.014870  -2.318440   0.000000   0.000000  -0.000000
  0.696459  89.504100   0.335071  -0.306577  -4.824860   3.031710   0.450533   3.811870  -1.297160   0.991310   7.612410  -2.633320  -0.339330   1.290910   0.003273  -0.557794   2.617200   4.033100  -4.367610   1.582050  10.846900 -79.537200   6.812230  -3.496540  -0.580493   7.626860 -14.091500  10.281800  -3.384180  -0.303622  42.604700  38.920900 -56.187400 -33.974500   0.000888   0.000668 -11.991900   0.004027  -0.002183 -32.875400  -1.691450   2.615470 -26.929700  -0.004599  -0.008538 -18.850500  -0.002414  -0.013371 -30.420600  -0.850240   6.398070 -45.458200   0.000215   0.005844 -30.275100  -0.005969  -0.004182 -27.855300  -3.928990   7.389340 -32.689100  -0.001359   0.001143 -21.771000  -0.003632  -0.003611 -31.923500  -4.446200   7.091280 -48.304100  -0.003030   0.001905 -32.170500  -0.003772  -0.005022   8.442390   4.508650   5.982120  72.211500  -0.431152   6.143140   2.597310  -1.776890  15.511400 -21.734600   0.823462   3.108650 -39.481900  36.884100  70.757200  33.035700  -0.001580  -0.001082  11.517900  -0.003714   0.002364  24.502300   0.373601   0.818968  20.049500   0.000743   0.000214  14.034600   0.011445   0.000151  24.336200  -1.228740  -2.716900  24.365500  -0.001253   0.011746  16.227400  -0.004202  -0.003596  24.464400  -2.599570  -5.698250  24.593700   0.008273   0.001170  16.379400  -0.002848  -0.002401  28.265500  -2.971050  -5.513220  42.612800  -0.000036   0.000306  28.380100   0.010892  -0.000908   2.562080   5.875560   0.252719   0.356806   1.459590  11.247900  -2.651090  -2.896200  -0.625584   0.000000   0.000000   0.000000  -0.098296   4.997960  -2.129830  -0.495133   4.151120 -12.985900   1.096450  -4.010650  -2.278160   0.000000   0.000000   0.000000
